# xmcd
#
# Track frame offsets:
#	150
#	15060
#	31177
#	45969
#	59076
#	77406
#	93822
#	111102
#	126436
#	140182
#	155349
#	166928
#	181577
#	193307
#	205464
#	214533
#	227799
#	243953
#	258715
#	277456
#
# Disc length: 3861 seconds
#
# Revision: 1
# Processed by: cddbd v1.5.2PL0 Copyright (c) Steve Scherf et al.
# Submitted via: audiograbber 1.83.01
#
DISCID=160f1314
DTITLE=DIE CAMPBELLS - KEEP IT COUNTRY
DYEAR=1900
DGENRE=Country
TTITLE0=COUNTRY ROADS
TTITLE1=COTTON FIELDS
TTITLE2=BEAUTIFUL SUNDAY
TTITLE3=GREEN GREEN GRASS OF HOME
TTITLE4=RHINESTONE COWBOY
TTITLE5=BABY BLUE
TTITLE6=LUCILLE
TTITLE7=I'M ON MY WAY
TTITLE8=WOMAN BEAUTIFUL WOMAN
TTITLE9=THE GAMBLER
TTITLE10=HILLBILLY ROCK, HILLBILLY ROLL
TTITLE11=HELP ME MAKE IT THROUGH THE NIGHT
TTITLE12=KISS AN ANGEL GOOD MORNING
TTITLE13=MY SPECIAL PRAYER
TTITLE14=WHEN WILL I BE LOVED
TTITLE15=DARLIN
TTITLE16=LIVIN ON LOVE
TTITLE17=NEVER ENDING SONG OF LOVE
TTITLE18=QUEEN OF MY HEART
TTITLE19=SINGING THE BLUES
EXTD=
EXTT0=
EXTT1=
EXTT2=
EXTT3=
EXTT4=
EXTT5=
EXTT6=
EXTT7=
EXTT8=
EXTT9=
EXTT10=
EXTT11=
EXTT12=
EXTT13=
EXTT14=
EXTT15=
EXTT16=
EXTT17=
EXTT18=
EXTT19=
PLAYORDER=
